<?xml version="1.0" encoding="UTF-8"?>
<svg xmlns="http://www.w3.org/2000/svg" viewBox="0 0 240 240" width="1024" height="1024" aria-label="Gyana Sarathi mark"><defs><radialGradient id="nucleus-halo-full" cx="50%" cy="50%" r="50%"><stop offset="0%" stop-color="#5EEAF9" stop-opacity="0.9"/><stop offset="60%" stop-color="#5EEAF9" stop-opacity="0.18"/><stop offset="100%" stop-color="#5EEAF9" stop-opacity="0"/></radialGradient></defs><g opacity="0.85"><circle cx="137.61" cy="207.50" r="0.90" fill="#00B8D4" opacity="0.76"/><circle cx="75.71" cy="20.51" r="2.19" fill="#0E7C8F" opacity="0.59"/><circle cx="184.00" cy="180.03" r="1.27" fill="#0E7C8F" opacity="0.41"/><circle cx="220.91" cy="183.38" r="0.84" fill="#00B8D4" opacity="0.54"/><circle cx="145.19" cy="30.69" r="1.60" fill="#0E7C8F" opacity="0.41"/><circle cx="128.28" cy="27.60" r="0.64" fill="#00B8D4" opacity="0.67"/><circle cx="13.87" cy="147.00" r="1.55" fill="#0E7C8F" opacity="0.64"/><circle cx="16.43" cy="58.73" r="0.99" fill="#0E7C8F" opacity="0.73"/><circle cx="159.67" cy="48.90" r="1.20" fill="#00B8D4" opacity="0.51"/><circle cx="123.06" cy="39.70" r="1.43" fill="#0E7C8F" opacity="0.79"/><circle cx="44.98" cy="181.41" r="1.83" fill="#00B8D4" opacity="0.54"/><circle cx="94.51" cy="213.34" r="1.95" fill="#00B8D4" opacity="0.48"/><circle cx="209.75" cy="172.72" r="1.91" fill="#0E7C8F" opacity="0.56"/><circle cx="53.75" cy="213.59" r="0.71" fill="#0E7C8F" opacity="0.54"/><circle cx="49.13" cy="200.77" r="1.18" fill="#00B8D4" opacity="0.46"/><circle cx="-7.67" cy="139.88" r="2.10" fill="#0E7C8F" opacity="0.68"/><circle cx="82.80" cy="20.46" r="1.56" fill="#00B8D4" opacity="0.43"/><circle cx="146.05" cy="40.00" r="1.09" fill="#00B8D4" opacity="0.61"/><circle cx="82.95" cy="41.20" r="2.10" fill="#00B8D4" opacity="0.47"/><circle cx="38.81" cy="45.77" r="1.73" fill="#0E7C8F" opacity="0.64"/><circle cx="52.91" cy="25.89" r="1.40" fill="#0E7C8F" opacity="0.78"/><circle cx="240.54" cy="109.58" r="1.54" fill="#0E7C8F" opacity="0.62"/></g><g fill="none" stroke-linecap="round"><ellipse cx="120" cy="120" rx="120.9" ry="24.96" stroke="#00B8D4" stroke-width="1.2" opacity="0.7" transform="rotate(-32 120 120)"/><ellipse cx="120" cy="120" rx="32.76" ry="102.96000000000001" stroke="#00B8D4" stroke-width="1" opacity="0.55" transform="rotate(10 120 120)"/><ellipse cx="120" cy="120" rx="110.75999999999999" ry="32.76" stroke="#00B8D4" stroke-width="1.4" opacity="0.85" transform="rotate(18 120 120)"/></g><g stroke-linecap="round"><line x1="161.01" y1="67.92" x2="120.00" y2="128.92" stroke="#0E7C8F" stroke-width="1.34" opacity="0.47"/><line x1="78.99" y1="67.92" x2="120.00" y2="128.92" stroke="#0E7C8F" stroke-width="1.34" opacity="0.47"/><line x1="120.00" y1="128.92" x2="186.35" y2="145.41" stroke="#0E7C8F" stroke-width="1.35" opacity="0.48"/><line x1="53.65" y1="145.41" x2="120.00" y2="128.92" stroke="#0E7C8F" stroke-width="1.35" opacity="0.48"/><line x1="120.00" y1="193.30" x2="120.00" y2="128.92" stroke="#0E7C8F" stroke-width="1.36" opacity="0.49"/><line x1="78.99" y1="67.92" x2="161.01" y2="67.92" stroke="#0E7C8F" stroke-width="1.40" opacity="0.53"/><line x1="161.01" y1="67.92" x2="186.35" y2="145.41" stroke="#0E7C8F" stroke-width="1.41" opacity="0.55"/><line x1="78.99" y1="67.92" x2="53.65" y2="145.41" stroke="#0E7C8F" stroke-width="1.41" opacity="0.55"/><line x1="120.00" y1="193.30" x2="186.35" y2="145.41" stroke="#0E7C8F" stroke-width="1.44" opacity="0.57"/><line x1="120.00" y1="193.30" x2="53.65" y2="145.41" stroke="#0E7C8F" stroke-width="1.44" opacity="0.57"/><line x1="120.00" y1="46.70" x2="161.01" y2="67.92" stroke="#0E7C8F" stroke-width="1.51" opacity="0.65"/><line x1="120.00" y1="46.70" x2="78.99" y2="67.92" stroke="#0E7C8F" stroke-width="1.51" opacity="0.65"/><line x1="161.01" y1="67.92" x2="186.35" y2="94.59" stroke="#0E7C8F" stroke-width="1.52" opacity="0.66"/><line x1="53.65" y1="94.59" x2="78.99" y2="67.92" stroke="#0E7C8F" stroke-width="1.52" opacity="0.66"/><line x1="186.35" y1="94.59" x2="186.35" y2="145.41" stroke="#0E7C8F" stroke-width="1.54" opacity="0.68"/><line x1="53.65" y1="94.59" x2="53.65" y2="145.41" stroke="#0E7C8F" stroke-width="1.54" opacity="0.68"/><line x1="186.35" y1="145.41" x2="161.01" y2="172.08" stroke="#0E7C8F" stroke-width="1.55" opacity="0.69"/><line x1="78.99" y1="172.08" x2="53.65" y2="145.41" stroke="#0E7C8F" stroke-width="1.55" opacity="0.69"/><line x1="120.00" y1="193.30" x2="78.99" y2="172.08" stroke="#0E7C8F" stroke-width="1.56" opacity="0.70"/><line x1="120.00" y1="193.30" x2="161.01" y2="172.08" stroke="#0E7C8F" stroke-width="1.56" opacity="0.70"/><line x1="120.00" y1="46.70" x2="186.35" y2="94.59" stroke="#0E7C8F" stroke-width="1.64" opacity="0.78"/><line x1="120.00" y1="46.70" x2="53.65" y2="94.59" stroke="#0E7C8F" stroke-width="1.64" opacity="0.78"/><line x1="186.35" y1="94.59" x2="161.01" y2="172.08" stroke="#0E7C8F" stroke-width="1.66" opacity="0.80"/><line x1="53.65" y1="94.59" x2="78.99" y2="172.08" stroke="#0E7C8F" stroke-width="1.66" opacity="0.80"/><line x1="161.01" y1="172.08" x2="78.99" y2="172.08" stroke="#0E7C8F" stroke-width="1.68" opacity="0.82"/><line x1="120.00" y1="46.70" x2="120.00" y2="111.08" stroke="#0E7C8F" stroke-width="1.71" opacity="0.86"/><line x1="186.35" y1="94.59" x2="120.00" y2="111.08" stroke="#0E7C8F" stroke-width="1.72" opacity="0.87"/><line x1="120.00" y1="111.08" x2="53.65" y2="94.59" stroke="#0E7C8F" stroke-width="1.72" opacity="0.87"/><line x1="120.00" y1="111.08" x2="78.99" y2="172.08" stroke="#0E7C8F" stroke-width="1.74" opacity="0.88"/><line x1="120.00" y1="111.08" x2="161.01" y2="172.08" stroke="#0E7C8F" stroke-width="1.74" opacity="0.88"/></g><g stroke="#7FB8C4" stroke-width="0.6" opacity="0.32"><line x1="120" y1="120" x2="120.00" y2="111.08"/><line x1="120" y1="120" x2="78.99" y2="172.08"/><line x1="120" y1="120" x2="161.01" y2="172.08"/><line x1="120" y1="120" x2="53.65" y2="94.59"/><line x1="120" y1="120" x2="186.35" y2="94.59"/></g><circle cx="120" cy="120" r="32.76" fill="url(#nucleus-halo-full)"/><circle cx="120" cy="120" r="5.20" fill="#00B8D4"/><circle cx="120" cy="120" r="2.18" fill="#EAFCFF" opacity="1"/></svg>